# AST/ASF file generated using VICON BodyLanguage
# -----------------------------------------------
:version 1.10
:name VICON
:units
  mass 1.0
  length 0.45
  angle deg
:documentation
   .ast/.asf automatically generated from VICON data using
   VICON BodyBuilder and BodyLanguage model FoxedUp or BRILLIANT.MOD
:root
   order TX TY TZ RX RY RZ
   axis XYZ
   position 0 0 0  
   orientation 0 0 0 
:bonedata
  begin
     id 1 
     name lhipjoint
     direction 0.623529 -0.717805 0.309788 
     length 2.23224 
     axis 0 0 0  XYZ
  end
  begin
     id 2 
     name lfemur
     direction 0.34202 -0.939693 0  
     length 7.11402  
     axis 0 0 20  XYZ
    dof rx ry rz
    limits (-160.0 20.0)
           (-70.0 70.0)
           (-60.0 70.0)
  end
  begin
     id 3 
     name ltibia
     direction 0.34202 -0.939693 0   
     length 6.78496   
     axis 0 0 20   XYZ
    dof rx
    limits (-10.0 170.0)
  end
  begin
     id 4 
     name lfoot
     direction 0.125078 -0.343648 0.930732   
     length 1.84054   
     axis -90 7.62852e-016 20   XYZ
    dof rx rz
    limits (-45.0 90.0)
           (-70.0 20.0)
  end
  begin
     id 5 
     name ltoes
     direction 1.53565e-011 -4.21893e-011 1   
     length 0.916474   
     axis -90 7.62852e-016 20   XYZ
    dof rx
    limits (-90.0 20.0)
  end
  begin
     id 6 
     name rhipjoint
     direction -0.564688 -0.757748 0.327026   
     length 2.11457  
     axis 0 0 0  XYZ 
  end
  begin
     id 7 
     name rfemur
     direction -0.34202 -0.939693 0   
     length 7.14609   
     axis 0 0 -20   XYZ
    dof rx ry rz
    limits (-160.0 20.0)
           (-70.0 70.0)
           (-70.0 60.0)
  end
  begin
     id 8 
     name rtibia
     direction -0.34202 -0.939693 0   
     length 6.78101   
     axis 0 0 -20   XYZ
    dof rx
    limits (-10.0 170.0)
 end
 begin
     id 9 
     name rfoot
     direction -0.0992671 -0.272734 0.956955   
     length 1.96168  
     axis -90 -7.62852e-016 -20   XYZ
    dof rx rz
    limits (-45.0 90.0)
           (-20.0 70.0)
  end
  begin
     id 10 
     name rtoes
     direction -1.5356e-011 -4.21891e-011 1   
     length 0.982933   
     axis -90 -7.62852e-016 -20   XYZ
    dof rx
    limits (-90.0 20.0)
  end
  begin
     id 11 
     name lowerback
     direction -0.00596953 0.998668 0.0512524   
     length 1.87557   
     axis 0 0 0   XYZ
    dof rx ry rz
    limits (-20.0 45.0)
           (-30.0 30.0)
           (-30.0 30.0)
  end
  begin
     id 12 
     name upperback
     direction 0.00584879 0.999652 0.0257308   
     length 1.87883   
     axis 0 0 0   XYZ
    dof rx ry rz
    limits (-20.0 45.0)
           (-30.0 30.0)
           (-30.0 30.0)
  end
  begin
     id 13 
     name thorax
     direction 0.010104 0.999947 0.00178881   
     length 1.87779   
     axis 0 0 0   XYZ
    dof rx ry rz
    limits (-20.0 45.0)
           (-30.0 30.0)
           (-30.0 30.0)
  end
  begin
     id 14 
     name lowerneck
     direction 0.0120771 0.995934 -0.0892773   
     length 1.40897   
     axis 0 0 0   XYZ
    dof rx ry rz
    limits (-20.0 45.0)
           (-30.0 30.0)
           (-30.0 30.0)
  end
  begin
     id 15 
     name upperneck
     direction -0.030568 0.999465 -0.0116366   
     length 1.38661   
     axis 0 0 0   XYZ
    dof rx ry rz
    limits (-20.0 45.0)
           (-30.0 30.0)
           (-30.0 30.0)
  end
  begin
     id 16
     name head
     direction -0.0170715 0.999854 -0.00104426  
     length 1.47052  
     axis 0 0 0   XYZ
    dof rx ry rz
    limits (-20.0 45.0)
           (-30.0 30.0)
           (-30.0 30.0)
  end
  begin
     id 17 
     name lclavicle
     direction 0.977763 0.206143 0.038532  
     length 3.02424  
     axis 0 0 0   XYZ
    dof ry rz
    limits (-20.0 10.0)
           (0.0 20.0)
  end
  begin
     id 18 
     name lhumerus
     direction 1 -4.48965e-011 -2.62654e-027   
     length 4.68382   
     axis 180 -30 -90   XYZ
    dof rx ry rz
    limits (-60.0 90.0)
           (-90.0 90.0)
           (-90.0 90.0)
  end
  begin
     id 19
     name lradius
     direction 1 -4.48973e-011 -1.54954e-027   
     length 2.98124   
     axis 180 -30 -90   XYZ
    dof rx
    limits (-10.0 170.0)
  end
  begin
     id 20
     name lwrist
     direction 1 -4.48959e-011 7.20928e-028   
     length 1.49062   
     axis -5.52449e-016 90 90   XYZ
    dof ry
    limits (-180.0 0.0)
 end
  begin
     id 21 
     name lhand
     direction 1 -4.48971e-011 1.44186e-027   
     length 0.707595   
     axis -9.20027e-016 90 90   XYZ
    dof rx rz
    limits (-90.0 90.0)
           (-45.0 45.0)
  end
  begin
     id 22 
     name lfingers
     direction 1 -4.48985e-011 2.88371e-027   
     length 0.570481   
     axis -1.84005e-015 90 90   XYZ
    dof rx
    limits (0.0 90.0)
  end
  begin
     id 23
     name lthumb
     direction 0.707107 -6.34929e-011 0.707107   
     length 0.819101   
     axis -90 45 2.85299e-015   XYZ
    dof rx rz
    limits (-45.0 45.0)
           (-45.0 45.0)
  end
  begin
     id 24 
     name rclavicle
     direction -0.958661 0.284411 -0.00895327   
     length 3.11921  
     axis 0 0 0   XYZ 
    dof ry rz
    limits (-10.0 20.0)
           (-20.0 0.0)
  end
  begin
     id 25 
     name rhumerus
     direction -1 -4.48963e-011 -4.22193e-027  
     length 4.75876   
     axis 180 30 90   XYZ
    dof rx ry rz
    limits (-90.0 60.0)
           (-90.0 90.0)
           (-90.0 90.0)
  end
  begin
     id 26 
     name rradius
     direction -1 -4.48968e-011 -1.07616e-027   
     length 2.93293   
     axis 180 30 90   XYZ
    dof rx
    limits (-10.0 170.0)
  end
  begin
     id 27 
     name rwrist
     direction -1 -4.48965e-011 7.20928e-028   
     length 1.46647   
     axis -5.52449e-016 -90 -90   XYZ
    dof ry
    limits (-180.0 0.0)
  end
  begin
     id 28
     name rhand
     direction -1 -4.48971e-011 1.44186e-027   
     length 0.831748   
     axis -9.20027e-016 -90 -90   XYZ
    dof rx rz
    limits (-90.0 90.0)
           (-45.0 45.0)
  end
  begin
     id 29
     name rfingers
     direction -1 -4.48961e-011 2.88371e-027   
     length 0.670577   
     axis -1.84005e-015 -90 -90   XYZ
    dof rx
    limits (0.0 90.0)
  end
  begin
     id 30
     name rthumb
     direction -0.707107 -6.34929e-011 0.707107   
     length 0.962818   
     axis -90 -45 -2.85299e-015   XYZ
    dof rx rz
    limits (-45.0 45.0)
           (-45.0 45.0)
  end
:hierarchy
  begin
    root lhipjoint rhipjoint lowerback
    lhipjoint lfemur
    lfemur ltibia
    ltibia lfoot
    lfoot ltoes
    rhipjoint rfemur
    rfemur rtibia
    rtibia rfoot
    rfoot rtoes
    lowerback upperback
    upperback thorax
    thorax lowerneck lclavicle rclavicle
    lowerneck upperneck
    upperneck head
    lclavicle lhumerus
    lhumerus lradius
    lradius lwrist
    lwrist lhand lthumb
    lhand lfingers
    rclavicle rhumerus
    rhumerus rradius
    rradius rwrist
    rwrist rhand rthumb
    rhand rfingers
  end

#!OML:ASF E:\id_vita\Project 1\Capture day 1\Session 1\Female.ASF
:FULLY-SPECIFIED
:DEGREES
734
root -2.24511 14.5844 -0.777132 175.296 -89.4829 -131.927
lowerback 13.6247 -3.2225 -4.31249
upperback 7.99558 -5.07586 4.59744
thorax 1.67196 -2.98918 7.88049
lowerneck -10.2178 5.19173 0.720506
upperneck -23.0196 5.42785 -2.92963
head -5.2378 2.15033 -1.06424
rclavicle 7.39479e-014 -1.86858e-014
rhumerus 5.96439 46.6912 -89.3773
rradius 81.1242
rwrist -28.8194
rhand -31.9723 -2.6339
rfingers 7.12502
rthumb -5.22194 -32.5496
lclavicle 7.39479e-014 -1.86858e-014
lhumerus 58.7147 -1.41906 102.815
lradius 13.2523
lwrist -16.0293
lhand 5.95765 43.9548
lfingers 7.12502
lthumb 31.283 71.302
rfemur -90.5864 -9.65348 18.8132
rtibia 77.3561
rfoot -3.90675 -11.5614
rtoes -13.7578
lfemur -80.3808 -0.179912 -40.4453
ltibia 65.7592
lfoot -23.0081 16.8936
ltoes 10.7741
735
root -2.21782 14.6158 -0.77252 174.035 -89.0533 -130.769
lowerback 13.6063 -3.02469 -4.3921
upperback 8.13571 -4.84035 4.56284
thorax 1.79539 -2.88714 7.85838
lowerneck -10.7447 5.19823 0.64692
upperneck -22.6976 5.45361 -2.81715
head -5.06079 2.1611 -1.00018
rclavicle 8.34896e-014 -5.80451e-014
rhumerus 6.03085 46.8689 -89.168
rradius 81.1589
rwrist -29.0165
rhand -32.0514 -2.75031
rfingers 7.12502
rthumb -5.29833 -32.6641
lclavicle 8.34896e-014 -5.80451e-014
lhumerus 58.7562 -1.41042 102.951
lradius 13.0332
lwrist -16.2061
lhand 5.79335 43.863
lfingers 7.12502
lthumb 31.1264 71.2403
rfemur -89.4507 -9.7672 19.1732
rtibia 79.1188
rfoot -3.29659 -12.7498
rtoes -10.741
lfemur -80.3932 0.206388 -40.2296
ltibia 65.5514
lfoot -22.8465 16.536
ltoes 10.7073
736
root -2.19169 14.6467 -0.770156 176.292 -88.7612 -132.956
lowerback 13.3739 -2.86225 -4.55209
upperback 8.20495 -4.64364 4.48344
thorax 1.96643 -2.80147 7.82415
lowerneck -11.0049 5.18407 0.618956
upperneck -22.5263 5.48034 -2.52928
head -4.97713 2.16105 -0.897101
rclavicle 5.24792e-014 9.89948e-014
rhumerus 5.86716 46.8379 -89.2661
rradius 81.2636
rwrist -29.1524
rhand -32.0701 -2.81916
rfingers 7.12502
rthumb -5.31645 -32.7325
lclavicle 5.24792e-014 9.89948e-014
lhumerus 58.6018 -1.43665 103.13
lradius 12.8479
lwrist -16.7973
lhand 6.01196 43.6617
lfingers 7.12502
lthumb 31.3347 70.9988
rfemur -88.4719 -9.99581 19.4887
rtibia 80.7917
rfoot -4.31758 -12.3496
rtoes -11.6546
lfemur -80.5033 0.406471 -40.0692
ltibia 65.2837
lfoot -22.7469 16.1184
ltoes 11.1862
737
root -2.16693 14.6721 -0.770279 181.273 -88.4737 -137.777
lowerback 13.1284 -2.71276 -4.78892
upperback 8.14139 -4.45718 4.37407
thorax 2.00764 -2.71004 7.80839
lowerneck -10.6815 5.1171 0.540216
upperneck -22.7158 5.45987 -2.15066
head -5.10139 2.13853 -0.775011
rclavicle 3.10104e-014 1.98785e-015
rhumerus 5.45667 46.792 -89.5078
rradius 81.2491
rwrist -29.1781
rhand -32.0012 -2.61874
rfingers 7.12502
rthumb -5.24985 -32.5337
lclavicle 3.10104e-014 1.98785e-015
lhumerus 58.1915 -1.56704 103.066
lradius 12.7509
lwrist -17.2352
lhand 6.39088 43.4819
lfingers 7.12502
lthumb 31.6957 70.7484
rfemur -87.4667 -10.2415 19.7677
rtibia 82.363
rfoot -4.75029 -12.0648
rtoes -11.9817
lfemur -80.6682 0.532282 -39.9843
ltibia 64.9835
lfoot -22.5837 15.7824
ltoes 11.3803
738
root -2.13863 14.6935 -0.768394 182.348 -88.5182 -138.601
lowerback 12.8681 -2.74129 -4.79303
upperback 8.11054 -4.47977 4.30313
thorax 2.11117 -2.71816 7.71749
lowerneck -10.86 5.08316 0.369807
upperneck -22.7247 5.46585 -1.80751
head -5.09352 2.13104 -0.634811
rclavicle -3.57812e-014 7.71285e-014
rhumerus 5.31412 46.9159 -89.4919
rradius 81.22
rwrist -29.2826
rhand -31.9371 -2.23462
rfingers 7.12502
rthumb -5.18795 -32.1511
lclavicle -3.57812e-014 7.71285e-014
lhumerus 58.0384 -1.68443 102.829
lradius 12.7523
lwrist -17.2281
lhand 6.64749 43.4471
lfingers 7.12502
lthumb 31.9401 70.665
rfemur -86.5407 -10.8266 20.2063
rtibia 83.8503
rfoot -4.57345 -11.5088
rtoes -11.5106
lfemur -80.8548 0.322754 -39.819
ltibia 64.6411
lfoot -22.1723 15.3146
ltoes 10.9247
739
root -2.10781 14.7192 -0.767879 177.393 -88.5308 -133.288
lowerback 12.6162 -2.70807 -4.72364
upperback 8.0162 -4.41105 4.30755
thorax 2.12714 -2.67414 7.66139
lowerneck -11.0399 5.0696 0.384886
upperneck -22.6867 5.46009 -1.66907
head -5.05828 2.11636 -0.589041
rclavicle 4.92986e-014 -5.56597e-015
rhumerus 4.92929 46.8496 -89.7003
rradius 81.2804
rwrist -29.3569
rhand -31.9805 -2.029
rfingers 7.12502
rthumb -5.22988 -31.9445
lclavicle 4.92986e-014 -5.56597e-015
lhumerus 57.8176 -1.94027 102.619
lradius 12.9027
lwrist -16.9047
lhand 6.70864 43.5494
lfingers 7.12502
lthumb 31.9983 70.7557
rfemur -85.7026 -11.3531 20.8531
rtibia 85.1696
rfoot -4.27122 -10.9052
rtoes -10.7425
lfemur -81.2069 0.173744 -39.5219
ltibia 64.2432
lfoot -21.5842 14.7933
ltoes 10.1753
740
root -2.07145 14.7444 -0.771694 174.784 -88.4589 -130.21
lowerback 12.2214 -2.60348 -4.74088
upperback 7.9126 -4.25123 4.28512
thorax 2.20013 -2.58797 7.60906
lowerneck -11.0048 4.95018 0.290458
upperneck -22.8388 5.35541 -1.26722
head -5.128 2.04387 -0.448146
rclavicle 0 -3.29983e-014
rhumerus 4.60548 46.6558 -89.9708
rradius 81.3084
rwrist -29.3258
rhand -32.0669 -2.21411
rfingers 7.12502
rthumb -5.31337 -32.1275
lclavicle 0 -3.29983e-014
lhumerus 57.5932 -2.49297 102.091
lradius 13.0866
lwrist -16.0158
lhand 6.11578 43.8288
lfingers 7.12502
lthumb 31.4336 71.1467
rfemur -84.9413 -11.75 21.4169
rtibia 86.3889
rfoot -4.11914 -10.5567
rtoes -9.97709
lfemur -81.7074 0.0928493 -39.3123
ltibia 63.8228
lfoot -20.8211 14.4411
ltoes 9.27358
741
root -2.0401 14.7869 -0.77365 176.555 -88.6148 -131.949
lowerback 12.4298 -2.5633 -4.92108
upperback 7.85197 -4.21579 4.22617
thorax 2.02731 -2.56599 7.66309
lowerneck -10.6394 4.78102 0.0775505
upperneck -23.2697 5.21182 -0.730532
head -5.34379 1.94813 -0.253343
rclavicle -5.56597e-014 1.51076e-014
rhumerus 4.25836 46.6388 -90.2488
rradius 81.3525
rwrist -29.2411
rhand -32.0714 -2.54533
rfingers 7.12502
rthumb -5.31766 -32.4586
lclavicle -5.56597e-014 1.51076e-014
lhumerus 57.3712 -2.739 101.827
lradius 13.1453
lwrist -15.5254
lhand 4.39857 44.0419
lfingers 7.12502
lthumb 29.7962 71.6659
rfemur -83.588 -12.3899 21.7318
rtibia 87.4372
rfoot -4.004 -10.2283
rtoes -9.37964
lfemur -81.5241 -0.0293948 -39.2351
ltibia 63.3525
lfoot -20.3041 14.2716
ltoes 8.58398
742
root -2.01066 14.8191 -0.780396 176.11 -88.5855 -131.308
lowerback 12.386 -2.52786 -5.10168
upperback 7.81854 -4.1803 4.18165
thorax 2.02063 -2.5508 7.71404
lowerneck -10.6902 4.75342 0.0781059
upperneck -23.3776 5.19725 -0.514488
head -5.377 1.92101 -0.184251
rclavicle -2.46493e-014 -1.51076e-014
rhumerus 4.03819 46.7132 -90.4626
rradius 81.4038
rwrist -29.1356
rhand -31.9997 -2.85981
rfingers 7.12502
rthumb -5.24842 -32.7748
lclavicle -2.46493e-014 -1.51076e-014
lhumerus 57.2195 -2.45704 102.13
lradius 13.0795
lwrist -16.126
lhand 2.89063 43.8911
lfingers 7.12502
lthumb 28.356 71.7638
rfemur -82.4275 -12.782 22.1634
rtibia 88.3337
rfoot -3.75766 -9.8973
rtoes -9.04829
lfemur -81.6302 -0.04864 -39.0518
ltibia 62.9454
lfoot -19.8638 14.1996
ltoes 7.46828
743
root -1.98523 14.8416 -0.786228 172.637 -88.563 -127.524
lowerback 12.1723 -2.55306 -5.00886
upperback 7.79061 -4.19037 4.09492
thorax 2.09121 -2.54772 7.55367
lowerneck -11.5863 4.79924 0.210795
upperneck -22.7428 5.25051 -0.411614
head -5.03803 1.9391 -0.150061
rclavicle 4.21423e-014 5.80451e-014
rhumerus 3.92231 46.7867 -90.6546
rradius 81.3585
rwrist -29.2173
rhand -32.1107 -2.74831
rfingers 7.12502
rthumb -5.35566 -32.6606
lclavicle 4.21423e-014 5.80451e-014
lhumerus 57.1648 -2.067 102.538
lradius 12.8687
lwrist -16.9838
lhand 2.57858 43.3593
lfingers 7.12502
lthumb 28.0578 71.2812
rfemur -81.2877 -13.1792 22.6598
rtibia 89.055
rfoot -3.47844 -9.45318
rtoes -8.18951
lfemur -81.9036 -0.133645 -38.789
ltibia 62.5837
lfoot -19.3909 13.8569
ltoes 6.75938
744
root -1.96218 14.8725 -0.792085 170.58 -88.5225 -125.245
lowerback 12.0401 -2.46238 -5.15115
upperback 7.70683 -4.07332 4.13568
thorax 2.06868 -2.49009 7.664
lowerneck -11.4038 4.7002 0.072462
upperneck -22.8526 5.16396 -0.19267
head -5.11031 1.89552 -0.0621227
rclavicle -1.59028e-014 -4.05521e-014
rhumerus 3.59488 46.6715 -90.7727
rradius 81.4455
rwrist -29.1051
rhand -32.104 -2.85389
rfingers 7.12502
rthumb -5.34918 -32.7664
lclavicle -1.59028e-014 -4.05521e-014
lhumerus 56.9517 -1.82466 103.188
lradius 12.7232
lwrist -17.6612
lhand 2.78551 42.9162
lfingers 7.12502
lthumb 28.2556 70.8055
rfemur -79.9686 -13.5444 23.0485
rtibia 89.5526
rfoot -3.13412 -8.74611
rtoes -6.37004
lfemur -81.9964 -0.134446 -38.5733
ltibia 62.2272
lfoot -19.0645 13.2611
ltoes 7.94725
